<svg width="54" height="35" viewBox="0 0 54 35" fill="none" xmlns="http://www.w3.org/2000/svg">
<path d="M0.0209999 23.003C0.0159999 23.141 0 23.276 0 23.416C0 23.463 0.00599997 23.508 0.00699997 23.554C0.00599997 23.646 0 23.737 0 23.829L0.0200005 23.815C0.232 29.981 5.285 34.918 11.502 34.918C17.854 34.918 23.004 29.769 23.004 23.416C23.004 17.62 18.712 12.839 13.135 12.044C14.521 7.449 18.78 4.106 23.83 4.106V0C10.937 0.001 0.457 10.217 0.0209999 23.003Z" fill="black"/>
<path d="M29.857 23.003C29.852 23.141 29.836 23.276 29.836 23.416C29.836 23.463 29.843 23.508 29.843 23.554C29.842 23.646 29.836 23.737 29.836 23.829L29.857 23.815C30.069 29.981 35.122 34.918 41.338 34.918C47.691 34.918 52.84 29.769 52.84 23.416C52.84 17.62 48.548 12.839 42.971 12.044C44.357 7.449 48.616 4.106 53.665 4.106V0C40.772 0.001 30.294 10.217 29.857 23.003Z" fill="black"/>
</svg>
